<svg xmlns="http://www.w3.org/2000/svg" viewBox="0 0 600 210" width="600" height="210">
  <defs>
    <linearGradient id="bg2" x1="0%" y1="0%" x2="100%" y2="100%">
      <stop offset="0%" stop-color="#0D0D1A"/>
      <stop offset="100%" stop-color="#111118"/>
    </linearGradient>
    <radialGradient id="glow2" cx="60%" cy="40%" r="60%">
      <stop offset="0%" stop-color="#A78BFA" stop-opacity="0.15"/>
      <stop offset="100%" stop-color="#7C5CFF" stop-opacity="0"/>
    </radialGradient>
  </defs>
  <rect width="600" height="210" fill="url(#bg2)"/>
  <rect width="600" height="210" fill="url(#glow2)"/>
  <!-- Dashboard UI mockup bars -->
  <rect x="48" y="48" width="240" height="8" rx="4" fill="#262636"/>
  <rect x="48" y="48" width="160" height="8" rx="4" fill="#7C5CFF" opacity="0.7"/>
  <rect x="48" y="72" width="240" height="8" rx="4" fill="#262636"/>
  <rect x="48" y="72" width="200" height="8" rx="4" fill="#A78BFA" opacity="0.5"/>
  <rect x="48" y="96" width="240" height="8" rx="4" fill="#262636"/>
  <rect x="48" y="96" width="100" height="8" rx="4" fill="#7C5CFF" opacity="0.4"/>
  <!-- Stat boxes -->
  <rect x="340" y="40" width="90" height="56" rx="10" fill="#181826" stroke="#262636" stroke-width="1"/>
  <text x="385" y="64" font-family="system-ui" font-size="18" font-weight="700" fill="#7C5CFF" text-anchor="middle">24</text>
  <text x="385" y="82" font-family="system-ui" font-size="10" fill="#8B8BA3" text-anchor="middle">Trucks</text>
  <rect x="446" y="40" width="90" height="56" rx="10" fill="#181826" stroke="#262636" stroke-width="1"/>
  <text x="491" y="64" font-family="system-ui" font-size="18" font-weight="700" fill="#A78BFA" text-anchor="middle">98%</text>
  <text x="491" y="82" font-family="system-ui" font-size="10" fill="#8B8BA3" text-anchor="middle">Uptime</text>
  <!-- Labels -->
  <text x="48" y="145" font-family="system-ui, -apple-system, sans-serif" font-size="28" font-weight="700" fill="#ECECF4">FFP</text>
  <text x="48" y="168" font-family="system-ui, -apple-system, sans-serif" font-size="12" fill="#8B8BA3">Fleet Failure Predictor - Web + Flutter Mobile</text>
  <text x="48" y="186" font-family="system-ui" font-size="11" fill="#7C5CFF">trucking-predict.web.app</text>
</svg>
